<?xml version="1.0" encoding="UTF-8" standalone="no"?>
<svg
   xmlns:dc="http://purl.org/dc/elements/1.1/"
   xmlns:cc="http://creativecommons.org/ns#"
   xmlns:rdf="http://www.w3.org/1999/02/22-rdf-syntax-ns#"
   xmlns:svg="http://www.w3.org/2000/svg"
   xmlns="http://www.w3.org/2000/svg"
   viewBox="0 0 43.042934 103.93227"
   height="103.93227"
   width="110.042934"
   xml:space="preserve"
   id="svg2"
   version="1.1"><metadata
     id="metadata8"><rdf:RDF><cc:Work
         rdf:about=""><dc:format>image/svg+xml</dc:format><dc:type
           rdf:resource="http://purl.org/dc/dcmitype/StillImage" /></cc:Work></rdf:RDF></metadata><defs
     id="defs6"><clipPath
       id="clipPath18"
       clipPathUnits="userSpaceOnUse"><path
         id="path16"
         d="M 0,77.949 H 32.282 V 0 H 0 Z" /></clipPath></defs><g
     transform="matrix(1.3333333,0,0,-1.3333333,0,103.93227)"
     id="g10"><g
       id="g12"><g
         clip-path="url(#clipPath18)"
         id="g14"><g
           transform="translate(23.9897,45.0664)"
           id="g20"><path
             id="path22"
             style="fill:none;stroke:#93DEF3;stroke-width:3;stroke-linecap:round;stroke-linejoin:round;stroke-miterlimit:10;stroke-dasharray:none;stroke-opacity:1"
             d="M 0,0 C 1.625,-1.5 4.844,-5.385 5.75,-7.625 7.875,-12.875 6.48,-38.359 4,-41 c -2.853,-3.037 -20.931,-4.012 -23.375,0.625 -2.07,3.929 -4.035,26.951 -2.652,31.131 1.312,3.965 5.039,6.552 7.513,9.853" /></g><g
           transform="translate(2.1431,36.3428)"
           id="g24"><path
             id="path26"
             style="fill:none;stroke:#93DEF3;stroke-width:3;stroke-linecap:round;stroke-linejoin:round;stroke-miterlimit:10;stroke-dasharray:none;stroke-opacity:1"
             d="M 0,0 C 0.597,-3.151 4.347,-4.776 10.972,-4.526" /></g><g
           transform="translate(23.3755,45.1094)"
           id="g28"><path
             id="path30"
             style="fill:none;stroke:#93DEF3;stroke-width:3;stroke-linecap:round;stroke-linejoin:round;stroke-miterlimit:10;stroke-dasharray:none;stroke-opacity:1"
             d="M 0,0 C 1.364,1.332 0.7,10 -1.136,11.582 -2.972,13.164 -11.329,12.641 -13.232,11.299 -15.136,9.957 -14.75,1.743 -13.692,0.412 -12.636,-0.918 -1.364,-1.331 0,0 Z" /></g><g
           transform="translate(13.6147,58.3164)"
           id="g32"><path
             id="path34"
             style="fill:none;stroke:#93DEF3;stroke-width:3;stroke-linecap:round;stroke-linejoin:round;stroke-miterlimit:10;stroke-dasharray:none;stroke-opacity:1"
             d="M 0,0 C 0.109,3.5 -2.5,17.75 2,18.125 6.5,18.5 5.375,4.875 5.5,-0.25" /></g></g></g></g></svg>