<?xml version="1.0" encoding="UTF-8" standalone="no"?>
<svg
   xmlns:dc="http://purl.org/dc/elements/1.1/"
   xmlns:cc="http://creativecommons.org/ns#"
   xmlns:rdf="http://www.w3.org/1999/02/22-rdf-syntax-ns#"
   xmlns:svg="http://www.w3.org/2000/svg"
   xmlns="http://www.w3.org/2000/svg"
   viewBox="0 0 82.928497 81.030251"
   height="81.030251"
   width="82.928497"
   xml:space="preserve"
   version="1.1"
   id="svg2"><metadata
     id="metadata8"><rdf:RDF><cc:Work
         rdf:about=""><dc:format>image/svg+xml</dc:format><dc:type
           rdf:resource="http://purl.org/dc/dcmitype/StillImage" /></cc:Work></rdf:RDF></metadata><defs
     id="defs6"><clipPath
       id="clipPath16"
       clipPathUnits="userSpaceOnUse"><path
         id="path18"
         d="m 0,64.824 66.343,0 L 66.343,0 0,0 0,64.824 Z" /></clipPath></defs><g
     transform="matrix(1.25,0,0,-1.25,0,81.03025)"
     id="g10"><g
       id="g12"><g
         clip-path="url(#clipPath16)"
         id="g14"><g
           transform="translate(3.124,56.3047)"
           id="g20"><path
             id="path22"
             style="fill:none;stroke:#fff;stroke-width:3;stroke-linecap:round;stroke-linejoin:round;stroke-miterlimit:10;stroke-dasharray:none;stroke-opacity:1"
             d="m 0,0 c -2.658,-1.532 -1.582,-52.125 -0.104,-53.767 1.479,-1.64 58.987,-1.191 60.795,0.334 C 62.5,-51.907 61.84,-2.277 59.357,0.032 56.875,2.343 2.658,1.533 0,0 Z" /></g><g
           transform="translate(62.499,44.3975)"
           id="g24"><path
             id="path26"
             style="fill:none;stroke:#fff;stroke-width:3;stroke-linecap:round;stroke-linejoin:round;stroke-miterlimit:10;stroke-dasharray:none;stroke-opacity:1"
             d="M 0,0 C -9.111,0 -52.834,-0.541 -60.625,-0.375" /></g><g
           transform="translate(2.249,28.4385)"
           id="g28"><path
             id="path30"
             style="fill:none;stroke:#fff;stroke-width:3;stroke-linecap:round;stroke-linejoin:round;stroke-miterlimit:10;stroke-dasharray:none;stroke-opacity:1"
             d="M 0,0 C 16.875,0 45.625,0.334 61.667,0.668" /></g><g
           transform="translate(2.249,14.4385)"
           id="g32"><path
             id="path34"
             style="fill:none;stroke:#fff;stroke-width:3;stroke-linecap:round;stroke-linejoin:round;stroke-miterlimit:10;stroke-dasharray:none;stroke-opacity:1"
             d="M 0,0 C 9,0 54.625,-0.332 62.334,-0.332" /></g><g
           transform="translate(40.374,3.3877)"
           id="g36"><path
             id="path38"
             style="fill:none;stroke:#fff;stroke-width:3;stroke-linecap:round;stroke-linejoin:round;stroke-miterlimit:10;stroke-dasharray:none;stroke-opacity:1"
             d="M 0,0 C 0,5.969 -0.541,34.614 -0.375,39.719" /></g><g
           transform="translate(53.124,4.6377)"
           id="g40"><path
             id="path42"
             style="fill:none;stroke:#fff;stroke-width:3;stroke-linecap:round;stroke-linejoin:round;stroke-miterlimit:10;stroke-dasharray:none;stroke-opacity:1"
             d="M 0,0 C 0,5.969 -0.541,34.614 -0.375,39.719" /></g><g
           transform="translate(24.79,44.1108)"
           id="g44"><path
             id="path46"
             style="fill:none;stroke:#fff;stroke-width:3;stroke-linecap:round;stroke-linejoin:round;stroke-miterlimit:10;stroke-dasharray:none;stroke-opacity:1"
             d="M 0,0 C 0,-11.056 0.334,-29.892 0.668,-40.401" /></g><g
           transform="translate(10.79,44.1108)"
           id="g48"><path
             id="path50"
             style="fill:none;stroke:#fff;stroke-width:3;stroke-linecap:round;stroke-linejoin:round;stroke-miterlimit:10;stroke-dasharray:none;stroke-opacity:1"
             d="M 0,0 C 0,-5.896 -0.332,-35.788 -0.332,-40.838" /></g><g
           transform="translate(47.8281,55.0879)"
           id="g52"><path
             id="path54"
             style="fill:none;stroke:#fff;stroke-width:3;stroke-linecap:round;stroke-linejoin:round;stroke-miterlimit:10;stroke-dasharray:none;stroke-opacity:1"
             d="M 0,0 C -0.096,2.565 0.193,5.687 -0.406,8.236" /></g><g
           transform="translate(14.249,54.5225)"
           id="g56"><path
             id="path58"
             style="fill:none;stroke:#fff;stroke-width:3;stroke-linecap:round;stroke-linejoin:round;stroke-miterlimit:10;stroke-dasharray:none;stroke-opacity:1"
             d="M 0,0 0,8" /></g></g></g></g></svg>
