<?xml version="1.0" encoding="UTF-8" standalone="no"?>
<svg
   xmlns:dc="http://purl.org/dc/elements/1.1/"
   xmlns:cc="http://creativecommons.org/ns#"
   xmlns:rdf="http://www.w3.org/1999/02/22-rdf-syntax-ns#"
   xmlns:svg="http://www.w3.org/2000/svg"
   xmlns="http://www.w3.org/2000/svg"
   viewBox="0 0 53.875069 85.067734"
   height="85.067734"
   width="87.875069"
   xml:space="preserve"
   id="svg2"
   version="1.1"><metadata
     id="metadata8"><rdf:RDF><cc:Work
         rdf:about=""><dc:format>image/svg+xml</dc:format><dc:type
           rdf:resource="http://purl.org/dc/dcmitype/StillImage" /></cc:Work></rdf:RDF></metadata><defs
     id="defs6"><clipPath
       id="clipPath18"
       clipPathUnits="userSpaceOnUse"><path
         id="path16"
         d="M 0,63.801 H 40.406 V 0 H 0 Z" /></clipPath></defs><g
     transform="matrix(1.3333333,0,0,-1.3333333,0,85.067733)"
     id="g10"><g
       id="g12"><g
         clip-path="url(#clipPath18)"
         id="g14"><g
           transform="translate(19.8994,62.2896)"
           id="g20"><path
             id="path22"
             style="fill:none;stroke:#fff;stroke-width:3;stroke-linecap:round;stroke-linejoin:round;stroke-miterlimit:10;stroke-dasharray:none;stroke-opacity:1"
             d="M 0,0 C 18.105,0.475 22.197,-14.234 16.799,-28.27 12.444,-39.594 4.749,-53.095 1.41,-60.79 -4.397,-51.499 -17.741,-29.356 -18.334,-19.995 -19.061,-8.526 -13.832,-0.363 0,0 Z" /></g><g
           transform="translate(24.9258,51.0513)"
           id="g24"><path
             id="path26"
             style="fill:none;stroke:#fff;stroke-width:3;stroke-linecap:round;stroke-linejoin:round;stroke-miterlimit:10;stroke-dasharray:none;stroke-opacity:1"
             d="M 0,0 C -5.36,3.109 -14.108,0.003 -12.067,-9.837 -10.104,-19.305 2.316,-18.065 3.75,-9.119 4.475,-4.599 2.652,-1.539 0,0 Z" /></g></g></g></g></svg>
