<?xml version="1.0" encoding="UTF-8" standalone="no"?>
<svg
   xmlns:dc="http://purl.org/dc/elements/1.1/"
   xmlns:cc="http://creativecommons.org/ns#"
   xmlns:rdf="http://www.w3.org/1999/02/22-rdf-syntax-ns#"
   xmlns:svg="http://www.w3.org/2000/svg"
   xmlns="http://www.w3.org/2000/svg"
   viewBox="0 0 77.533203 105.43813"
   height="105.43813"
   width="100.533203"
   xml:space="preserve"
   id="svg2"
   version="1.1"><metadata
     id="metadata8"><rdf:RDF><cc:Work
         rdf:about=""><dc:format>image/svg+xml</dc:format><dc:type
           rdf:resource="http://purl.org/dc/dcmitype/StillImage" /></cc:Work></rdf:RDF></metadata><defs
     id="defs6"><clipPath
       id="clipPath18"
       clipPathUnits="userSpaceOnUse"><path
         id="path16"
         d="M 0,79.079 H 58.15 V 0 H 0 Z" /></clipPath></defs><g
     transform="matrix(1.3333333,0,0,-1.3333333,0,105.43813)"
     id="g10"><g
       id="g12"><g
         clip-path="url(#clipPath18)"
         id="g14"><g
           transform="translate(54.3804,20.522)"
           id="g20"><path
             id="path22"
             style="fill:none;stroke:#828FF2;stroke-width:3;stroke-linecap:round;stroke-linejoin:round;stroke-miterlimit:10;stroke-dasharray:none;stroke-opacity:1"
             d="m 0,0 c -3.822,-11.466 -12.444,-17.355 -20,-18.833 -1.306,-0.255 -2.665,2.201 -5.167,2.333 -3.166,0.167 -4.573,-2.804 -5.833,-2.5 -7.987,1.928 -17.769,9.404 -21.167,21.167 -2.166,7.5 0.477,24.064 9.667,27 12,3.833 13.943,-3.5 17.833,-3.5 5.219,0 7.167,8 18.334,2.833 C 1.229,25 5,15 0,0 Z" /></g><g
           transform="translate(29.6504,50.9229)"
           id="g24"><path
             id="path26"
             style="fill:none;stroke:#828FF2;stroke-width:3;stroke-linecap:round;stroke-linejoin:round;stroke-miterlimit:10;stroke-dasharray:none;stroke-opacity:1"
             d="m 0,0 c 0,0 -9.442,4.344 -13.62,11.07 -4.178,6.726 -3.087,12.628 -3.087,12.628 0,0 9.474,-1.987 13.322,-8.661 C 0.464,8.362 0.093,1.672 0,0 Z" /></g><g
           transform="translate(27.8804,71.189)"
           id="g28"><path
             id="path30"
             style="fill:none;stroke:#828FF2;stroke-width:3;stroke-linecap:round;stroke-linejoin:round;stroke-miterlimit:10;stroke-dasharray:none;stroke-opacity:1"
             d="m 0,0 c 2.145,5.076 5.428,6.39 5.428,6.39 0,0 5.365,-8.057 3.433,-15.515 -0.629,-2.427 -1.577,-4.542 -2.614,-6.33 C 5,-7.5 3.011,-3.256 0,0 Z" /></g></g></g></g></svg>