<?xml version="1.0" encoding="UTF-8" standalone="no"?>
<svg
   xmlns:dc="http://purl.org/dc/elements/1.1/"
   xmlns:cc="http://creativecommons.org/ns#"
   xmlns:rdf="http://www.w3.org/1999/02/22-rdf-syntax-ns#"
   xmlns:svg="http://www.w3.org/2000/svg"
   xmlns="http://www.w3.org/2000/svg"
   viewBox="0 0 84.186798 78.207069"
   height="78.207069"
   width="84.186798"
   xml:space="preserve"
   id="svg2"
   version="1.1"><metadata
     id="metadata8"><rdf:RDF><cc:Work
         rdf:about=""><dc:format>image/svg+xml</dc:format><dc:type
           rdf:resource="http://purl.org/dc/dcmitype/StillImage" /></cc:Work></rdf:RDF></metadata><defs
     id="defs6"><clipPath
       id="clipPath18"
       clipPathUnits="userSpaceOnUse"><path
         id="path16"
         d="M 0,58.655 H 63.14 V 0 H 0 Z" /></clipPath></defs><g
     transform="matrix(1.3333333,0,0,-1.3333333,0,78.207067)"
     id="g10"><g
       id="g12"><g
         clip-path="url(#clipPath18)"
         id="g14"><g
           transform="translate(46.1802,19.2656)"
           id="g20"><path
             id="path22"
             style="fill:none;stroke:#FFC257;stroke-width:3;stroke-linecap:round;stroke-linejoin:round;stroke-miterlimit:10;stroke-dasharray:none;stroke-opacity:1"
             d="m 0,0 c 0.671,1.504 0.978,3.109 0.867,4.559 4.42,7.452 12.662,26.881 12.169,28.672 -0.493,1.791 -5.628,5.159 -7.99,4.596 -2.362,-0.562 -13.38,-17.164 -18.491,-25.18 -4.368,-1.632 -9.064,-8.751 -3.997,-14.24" /></g><g
           transform="translate(1.5791,30.7783)"
           id="g24"><path
             id="path26"
             style="fill:none;stroke:#FFC257;stroke-width:3;stroke-linecap:round;stroke-linejoin:round;stroke-miterlimit:10;stroke-dasharray:none;stroke-opacity:1"
             d="M 0,0 C 1.68,-14.583 8.559,-22.32 11.354,-24.43 19.52,-30.597 40.823,-30.764 47.99,-25.598 55.95,-19.859 59.972,-7.124 60,1.5" /></g><g
           transform="translate(40.6504,45.9541)"
           id="g28"><path
             id="path30"
             style="fill:none;stroke:#FFC257;stroke-width:3;stroke-linecap:round;stroke-linejoin:round;stroke-miterlimit:10;stroke-dasharray:none;stroke-opacity:1"
             d="m 0,0 c -5.975,0.824 -12.483,0.734 -18.996,-0.259 -19.807,-3.018 -27.154,-16.959 -12.254,-24.219 10.325,-5.03 26.637,-5.717 38.912,-2.116 13.546,3.973 18.061,15.712 7.446,21.778" /></g></g></g></g></svg>