<?xml version="1.0" encoding="UTF-8" standalone="no"?>
<svg
   xmlns:dc="http://purl.org/dc/elements/1.1/"
   xmlns:cc="http://creativecommons.org/ns#"
   xmlns:rdf="http://www.w3.org/1999/02/22-rdf-syntax-ns#"
   xmlns:svg="http://www.w3.org/2000/svg"
   xmlns="http://www.w3.org/2000/svg"
   viewBox="0 0 76.23053 48.877602"
   height="48.877602"
   width="76.23053"
   xml:space="preserve"
   id="svg2"
   version="1.1"><metadata
     id="metadata8"><rdf:RDF><cc:Work
         rdf:about=""><dc:format>image/svg+xml</dc:format><dc:type
           rdf:resource="http://purl.org/dc/dcmitype/StillImage" /></cc:Work></rdf:RDF></metadata><defs
     id="defs6"><clipPath
       id="clipPath18"
       clipPathUnits="userSpaceOnUse"><path
         id="path16"
         d="M 0,36.658 H 57.173 V 0 H 0 Z" /></clipPath></defs><g
     transform="matrix(1.3333333,0,0,-1.3333333,0,48.8776)"
     id="g10"><g
       id="g12"><g
         clip-path="url(#clipPath18)"
         id="g14"><g
           transform="translate(3.1592,34.3691)"
           id="g20"><path
             id="path22"
             style="fill:none;stroke:#92C948;stroke-width:3;stroke-linecap:round;stroke-linejoin:round;stroke-miterlimit:10;stroke-dasharray:none;stroke-opacity:1"
             d="m 0,0 c 2.334,1 50.533,1.158 51.68,-0.166 1.146,-1.325 1.103,-30.309 -0.083,-31.65 C 50.41,-33.157 0.906,-33.358 -0.755,-31.587 -2.416,-29.816 -1.564,-0.67 0,0 Z" /></g><g
           transform="translate(2.8389,33.5166)"
           id="g24"><path
             id="path26"
             style="fill:none;stroke:#92C948;stroke-width:3;stroke-linecap:round;stroke-linejoin:round;stroke-miterlimit:10;stroke-dasharray:none;stroke-opacity:1"
             d="M 0,0 22.667,-16.667 51.334,0" /></g><g
           transform="translate(19.8389,19.5166)"
           id="g28"><path
             id="path30"
             style="fill:none;stroke:#92C948;stroke-width:3;stroke-linecap:round;stroke-linejoin:round;stroke-miterlimit:10;stroke-dasharray:none;stroke-opacity:1"
             d="M 0,0 -17.435,-16.734" /></g><g
           transform="translate(35.0059,20.3496)"
           id="g32"><path
             id="path34"
             style="fill:none;stroke:#92C948;stroke-width:3;stroke-linecap:round;stroke-linejoin:round;stroke-miterlimit:10;stroke-dasharray:none;stroke-opacity:1"
             d="M 0,0 19,-17.567" /></g></g></g></g></svg>