<?xml version="1.0" encoding="UTF-8" standalone="no"?>
<svg
   xmlns:dc="http://purl.org/dc/elements/1.1/"
   xmlns:cc="http://creativecommons.org/ns#"
   xmlns:rdf="http://www.w3.org/1999/02/22-rdf-syntax-ns#"
   xmlns:svg="http://www.w3.org/2000/svg"
   xmlns="http://www.w3.org/2000/svg"
   viewBox="0 0 78.714622 78.145752"
   height="68.145752"
   width="60.714622"
   xml:space="preserve"
   version="1.1"
   id="svg2"><metadata
     id="metadata8"><rdf:RDF><cc:Work
         rdf:about=""><dc:format>image/svg+xml</dc:format><dc:type
           rdf:resource="http://purl.org/dc/dcmitype/StillImage" /></cc:Work></rdf:RDF></metadata><defs
     id="defs6"><clipPath
       id="clipPath16"
       clipPathUnits="userSpaceOnUse"><path
         id="path18"
         d="m 0,62.517 62.972,0 L 62.972,0 0,0 0,62.517 Z" /></clipPath></defs><g
     transform="matrix(1.25,0,0,-1.25,0,78.14575)"
     id="g10"><g
       id="g12"><g
         clip-path="url(#clipPath16)"
         id="g14"><g
           transform="translate(10.3887,25.1377)"
           id="g20"><path
             id="path22"
             style="fill:none;stroke:#92C948;stroke-width:3;stroke-linecap:round;stroke-linejoin:round;stroke-miterlimit:10;stroke-dasharray:none;stroke-opacity:1"
             d="m 0,0 c 3.949,5.189 31.311,30.461 36.5,34.047 6.296,4.35 14.07,0.549 14.572,-7.151 0.148,-2.263 -1.261,-5.061 -3.463,-8.025 -5.163,-6.954 -32.962,-35.108 -36.971,-37.522 -5.69,-3.426 -12.04,-4.426 -19.527,-4.987 0,0 4.372,17.702 8.889,23.638 z" /></g><g
           transform="translate(8.1113,19.4355)"
           id="g24"><path
             id="path26"
             style="fill:none;stroke:#92C948;stroke-width:3;stroke-linecap:round;stroke-linejoin:round;stroke-miterlimit:10;stroke-dasharray:none;stroke-opacity:1"
             d="m 0,0 c 2.875,0.125 5.928,-0.547 9.25,-1.75 1.375,-3 2.5,-8.375 2,-10.5" /></g><g
           transform="translate(40.1113,53.4355)"
           id="g28"><path
             id="path30"
             style="fill:none;stroke:#92C948;stroke-width:3;stroke-linecap:round;stroke-linejoin:round;stroke-miterlimit:10;stroke-dasharray:none;stroke-opacity:1"
             d="m 0,0 c 3.375,3.125 9.736,0.561 11.986,-1.939 2.959,-3.289 3.604,-9.655 1.5,-12.5" /></g><g
           transform="translate(22.1113,21.9355)"
           id="g32"><path
             id="path34"
             style="fill:none;stroke:#92C948;stroke-width:3;stroke-linecap:round;stroke-linejoin:round;stroke-miterlimit:10;stroke-dasharray:none;stroke-opacity:1"
             d="M 0,0 C 5.625,5.25 20.486,20.686 24.375,24.125" /></g><g
           transform="translate(3.8613,5.4355)"
           id="g36"><path
             id="path38"
             style="fill:none;stroke:#92C948;stroke-width:3;stroke-linecap:round;stroke-linejoin:round;stroke-miterlimit:10;stroke-dasharray:none;stroke-opacity:1"
             d="M 0,0 C 2.75,1.875 3.875,0.125 2.375,-2.25" /></g></g></g></g></svg>
