<?xml version="1.0" encoding="UTF-8" standalone="no"?>
<svg
   xmlns:dc="http://purl.org/dc/elements/1.1/"
   xmlns:cc="http://creativecommons.org/ns#"
   xmlns:rdf="http://www.w3.org/1999/02/22-rdf-syntax-ns#"
   xmlns:svg="http://www.w3.org/2000/svg"
   xmlns="http://www.w3.org/2000/svg"
   viewBox="0 0 96.878937 64.40107"
   height="64.40107"
   width="96.878937"
   xml:space="preserve"
   id="svg2"
   version="1.1"><metadata
     id="metadata8"><rdf:RDF><cc:Work
         rdf:about=""><dc:format>image/svg+xml</dc:format><dc:type
           rdf:resource="http://purl.org/dc/dcmitype/StillImage" /></cc:Work></rdf:RDF></metadata><defs
     id="defs6"><clipPath
       id="clipPath18"
       clipPathUnits="userSpaceOnUse"><path
         id="path16"
         d="M 0,48.301 H 72.659 V 0 H 0 Z" /></clipPath></defs><g
     transform="matrix(1.3333333,0,0,-1.3333333,0,64.401067)"
     id="g10"><g
       id="g12"><g
         clip-path="url(#clipPath18)"
         id="g14"><g
           transform="translate(41.834,16.9268)"
           id="g20"><path
             id="path22"
             style="fill:none;stroke:#fff;stroke-width:3;stroke-linecap:round;stroke-linejoin:round;stroke-miterlimit:10;stroke-dasharray:none;stroke-opacity:1"
             d="M 0,0 C 6.566,6.749 8.081,8.261 14.599,15.137" /></g><g
           transform="translate(39.7959,17.6885)"
           id="g24"><path
             id="path26"
             style="fill:none;stroke:#fff;stroke-width:3;stroke-linecap:round;stroke-linejoin:round;stroke-miterlimit:10;stroke-dasharray:none;stroke-opacity:1"
             d="m 0,0 c -2.852,0.987 -5.968,0.315 -8.089,-1.833 -3.93,-3.978 -4.115,-10.774 1.379,-13.401 4.253,-2.033 9.558,-0.772 11.915,3.346 C 8.056,-6.908 4.58,-1.586 0,0 Z" /></g><g
           transform="translate(64.9209,46.3555)"
           id="g28"><path
             id="path30"
             style="fill:none;stroke:#fff;stroke-width:3;stroke-linecap:round;stroke-linejoin:round;stroke-miterlimit:10;stroke-dasharray:none;stroke-opacity:1"
             d="m 0,0 c -2.852,0.987 -5.968,0.315 -8.089,-1.833 -3.93,-3.978 -4.115,-10.774 1.379,-13.401 4.253,-2.033 9.558,-0.772 11.915,3.346 C 8.056,-6.908 4.58,-1.586 0,0 Z" /></g><g
           transform="translate(30.8252,15.5928)"
           id="g32"><path
             id="path34"
             style="fill:none;stroke:#fff;stroke-width:3;stroke-linecap:round;stroke-linejoin:round;stroke-miterlimit:10;stroke-dasharray:none;stroke-opacity:1"
             d="M 0,0 C -6.566,6.749 -8.081,8.261 -14.599,15.137" /></g><g
           transform="translate(7.7383,45.0215)"
           id="g36"><path
             id="path38"
             style="fill:none;stroke:#fff;stroke-width:3;stroke-linecap:round;stroke-linejoin:round;stroke-miterlimit:10;stroke-dasharray:none;stroke-opacity:1"
             d="m 0,0 c 2.852,0.987 5.968,0.315 8.089,-1.833 3.93,-3.978 4.115,-10.774 -1.379,-13.401 -4.253,-2.033 -9.558,-0.772 -11.915,3.346 C -8.056,-6.908 -4.58,-1.586 0,0 Z" /></g></g></g></g></svg>
