<?xml version="1.0" encoding="UTF-8" standalone="no"?>
<svg
   xmlns:dc="http://purl.org/dc/elements/1.1/"
   xmlns:cc="http://creativecommons.org/ns#"
   xmlns:rdf="http://www.w3.org/1999/02/22-rdf-syntax-ns#"
   xmlns:svg="http://www.w3.org/2000/svg"
   xmlns="http://www.w3.org/2000/svg"
   viewBox="0 0 78.242134 91.518936"
   height="91.518936"
   width="78.242134"
   xml:space="preserve"
   id="svg2"
   version="1.1"><metadata
     id="metadata8"><rdf:RDF><cc:Work
         rdf:about=""><dc:format>image/svg+xml</dc:format><dc:type
           rdf:resource="http://purl.org/dc/dcmitype/StillImage" /></cc:Work></rdf:RDF></metadata><defs
     id="defs6"><clipPath
       id="clipPath18"
       clipPathUnits="userSpaceOnUse"><path
         id="path16"
         d="M 0,68.639 H 58.682 V 0 H 0 Z" /></clipPath></defs><g
     transform="matrix(1.3333333,0,0,-1.3333333,0,91.518933)"
     id="g10"><g
       id="g12"><g
         clip-path="url(#clipPath18)"
         id="g14"><g
           transform="translate(39.0703,54.3428)"
           id="g20"><path
             id="path22"
             style="fill:none;stroke:#DCCA93;stroke-width:3;stroke-linecap:round;stroke-linejoin:round;stroke-miterlimit:10;stroke-dasharray:none;stroke-opacity:1"
             d="m 0,0 c -0.894,-0.25 -5.463,-13.649 -12.791,-23.125 -9.959,-12.875 -18.928,-18.27 -20.084,-20.5 -1.75,-3.375 12.316,-10.531 16.183,-9.008 1.783,0.703 31.572,44.756 33.151,48.841 C 13.094,-1.295 3.125,0.875 0,0 Z" /></g><g
           transform="translate(54.0703,53.0928)"
           id="g24"><path
             id="path26"
             style="fill:none;stroke:#DCCA93;stroke-width:3;stroke-linecap:round;stroke-linejoin:round;stroke-miterlimit:10;stroke-dasharray:none;stroke-opacity:1"
             d="m 0,0 c -10.834,2.583 -19.52,9.588 -20.708,11.708 -4.416,-10.166 -23.651,-37.831 -31.5,-42.499 -1.882,-1.119 4.042,-8.709 6.958,-8.459" /></g><g
           transform="translate(18.2793,44.7178)"
           id="g28"><path
             id="path30"
             style="fill:none;stroke:#DCCA93;stroke-width:3;stroke-linecap:round;stroke-linejoin:round;stroke-miterlimit:10;stroke-dasharray:none;stroke-opacity:1"
             d="m 0,0 c -0.918,0.833 -1.308,0.055 -0.334,-1.834 4.084,-7.916 16.709,-16.889 23.577,-17.941 2.007,-0.309 2.006,1.025 0.839,2.025" /></g><g
           transform="translate(33.4453,65.0513)"
           id="g32"><path
             id="path34"
             style="fill:none;stroke:#DCCA93;stroke-width:3;stroke-linecap:round;stroke-linejoin:round;stroke-miterlimit:10;stroke-dasharray:none;stroke-opacity:1"
             d="m 0,0 c 1.733,4.092 10.663,1.298 14.834,-1 1.93,-1.063 11.916,-6.583 8,-11.917" /></g><g
           transform="translate(39.9453,23.5928)"
           id="g36"><path
             id="path38"
             style="fill:none;stroke:#DCCA93;stroke-width:3;stroke-linecap:round;stroke-linejoin:round;stroke-miterlimit:10;stroke-dasharray:none;stroke-opacity:1"
             d="M 0,0 C 0.86,-1.129 0.822,-4.291 0.662,-5.65 0.388,-7.982 0.06,-10.922 -0.75,-13.125" /></g><g
           transform="translate(50.4453,15.9678)"
           id="g40"><path
             id="path42"
             style="fill:none;stroke:#DCCA93;stroke-width:3;stroke-linecap:round;stroke-linejoin:round;stroke-miterlimit:10;stroke-dasharray:none;stroke-opacity:1"
             d="M 0,0 C -4.75,0.5 -8.502,5.481 -8.5,8.25" /></g></g></g></g></svg>