<?xml version="1.0" encoding="UTF-8" standalone="no"?>
<svg
   xmlns:dc="http://purl.org/dc/elements/1.1/"
   xmlns:cc="http://creativecommons.org/ns#"
   xmlns:rdf="http://www.w3.org/1999/02/22-rdf-syntax-ns#"
   xmlns:svg="http://www.w3.org/2000/svg"
   xmlns="http://www.w3.org/2000/svg"
   viewBox="0 0 91.727203 62.057335"
   height="62.057335"
   width="91.727203"
   xml:space="preserve"
   id="svg2"
   version="1.1"><metadata
     id="metadata8"><rdf:RDF><cc:Work
         rdf:about=""><dc:format>image/svg+xml</dc:format><dc:type
           rdf:resource="http://purl.org/dc/dcmitype/StillImage" /></cc:Work></rdf:RDF></metadata><defs
     id="defs6"><clipPath
       id="clipPath18"
       clipPathUnits="userSpaceOnUse"><path
         id="path16"
         d="M 0,46.543 H 68.795 V 0 H 0 Z" /></clipPath></defs><g
     transform="matrix(1.3333333,0,0,-1.3333333,0,62.057333)"
     id="g10"><g
       id="g12"><g
         clip-path="url(#clipPath18)"
         id="g14"><g
           transform="translate(3.1323,43.2813)"
           id="g20"><path
             id="path22"
             style="fill:none;stroke:#92C948;stroke-width:3;stroke-linecap:round;stroke-linejoin:round;stroke-miterlimit:10;stroke-dasharray:none;stroke-opacity:1"
             d="M 0,0 C 2.37,1.909 59.884,2.441 61.942,0.721 64,-1 64.979,-37.425 63.333,-39 61.688,-40.576 4,-43.334 0.667,-40.667 -2.169,-38.397 -2.37,-1.909 0,0 Z" /></g><g
           transform="translate(25.0894,28.1289)"
           id="g24"><path
             id="path26"
             style="fill:none;stroke:#92C948;stroke-width:3;stroke-linecap:round;stroke-linejoin:round;stroke-miterlimit:10;stroke-dasharray:none;stroke-opacity:1"
             d="m 0,0 c 3.716,2 5.888,-6.825 10.947,-6.45 7.542,0.558 8.08,14.139 11.99,14.139 3.91,0 11.617,-23.48 10.687,-24.37 -0.93,-0.891 -46.272,-2.289 -48.155,-0.782 C -16.134,-16.18 -6.657,-3.582 0,0 Z" /></g></g></g></g></svg>