<?xml version="1.0" encoding="UTF-8" standalone="no"?>
<svg
   xmlns:dc="http://purl.org/dc/elements/1.1/"
   xmlns:cc="http://creativecommons.org/ns#"
   xmlns:rdf="http://www.w3.org/1999/02/22-rdf-syntax-ns#"
   xmlns:svg="http://www.w3.org/2000/svg"
   xmlns="http://www.w3.org/2000/svg"
   viewBox="0 0 89.143204 87.912804"
   height="87.912804"
   width="89.143204"
   xml:space="preserve"
   id="svg2"
   version="1.1"><metadata
     id="metadata8"><rdf:RDF><cc:Work
         rdf:about=""><dc:format>image/svg+xml</dc:format><dc:type
           rdf:resource="http://purl.org/dc/dcmitype/StillImage" /></cc:Work></rdf:RDF></metadata><defs
     id="defs6"><clipPath
       id="clipPath18"
       clipPathUnits="userSpaceOnUse"><path
         id="path16"
         d="M 0,65.935 H 66.857 V 0 H 0 Z" /></clipPath></defs><g
     transform="matrix(1.3333333,0,0,-1.3333333,0,87.9128)"
     id="g10"><g
       id="g12"><g
         clip-path="url(#clipPath18)"
         id="g14"><g
           transform="translate(35.9141,48.7681)"
           id="g20"><path
             id="path22"
             style="fill:none;stroke:#D09F49;stroke-width:3;stroke-linecap:round;stroke-linejoin:round;stroke-miterlimit:10;stroke-dasharray:none;stroke-opacity:1"
             d="M 0,0 C 3.706,-0.551 9.549,0.666 9.667,2.667 9.833,5.5 7.686,9.086 5.5,10.333 3.401,11.531 -3.5,12 -7.333,10.667 -10.481,9.572 -11.202,6.711 -13.5,5 -12.812,4.723 -9.5,4.5 -8.167,5.167 -5,7.833 0.822,4.271 0,0 Z" /></g><g
           transform="translate(2.4141,53.4346)"
           id="g24"><path
             id="path26"
             style="fill:none;stroke:#D09F49;stroke-width:3;stroke-linecap:round;stroke-linejoin:round;stroke-miterlimit:10;stroke-dasharray:none;stroke-opacity:1"
             d="m 0,0 c -5.666,-11.899 16.333,-15 29.5,-14.833 18.839,0.239 42.167,8 29.01,18.394 C 50.872,9.595 42.167,11 29,11 15.833,11 3.124,6.562 0,0 Z" /></g><g
           transform="translate(2.2471,52.9346)"
           id="g28"><path
             id="path30"
             style="fill:none;stroke:#D09F49;stroke-width:3;stroke-linecap:round;stroke-linejoin:round;stroke-miterlimit:10;stroke-dasharray:none;stroke-opacity:1"
             d="M 0,0 C -1.721,-2.813 0,-12.667 1.5,-15.833 8.667,-26 50.167,-28.833 62,-14 c 1.297,1.625 1.449,11.751 0.5,13.5" /></g><g
           transform="translate(5.9141,34.4346)"
           id="g32"><path
             id="path34"
             style="fill:none;stroke:#D09F49;stroke-width:3;stroke-linecap:round;stroke-linejoin:round;stroke-miterlimit:10;stroke-dasharray:none;stroke-opacity:1"
             d="m 0,0 c 1.628,-12.412 9.711,-26.61 12.663,-29.309 4.835,-4.419 26.59,-5.343 30.504,0.309 3.35,4.837 10.865,20.283 11.833,29.833" /></g></g></g></g></svg>