<?xml version="1.0" encoding="UTF-8" standalone="no"?>
<svg
   xmlns:dc="http://purl.org/dc/elements/1.1/"
   xmlns:cc="http://creativecommons.org/ns#"
   xmlns:rdf="http://www.w3.org/1999/02/22-rdf-syntax-ns#"
   xmlns:svg="http://www.w3.org/2000/svg"
   xmlns="http://www.w3.org/2000/svg"
   viewBox="0 0 104.09707 79.898399"
   height="79.898399"
   width="104.09707"
   xml:space="preserve"
   id="svg2"
   version="1.1"><metadata
     id="metadata8"><rdf:RDF><cc:Work
         rdf:about=""><dc:format>image/svg+xml</dc:format><dc:type
           rdf:resource="http://purl.org/dc/dcmitype/StillImage" /></cc:Work></rdf:RDF></metadata><defs
     id="defs6"><clipPath
       id="clipPath18"
       clipPathUnits="userSpaceOnUse"><path
         id="path16"
         d="M 0,59.924 H 78.073 V 0 H 0 Z" /></clipPath></defs><g
     transform="matrix(1.3333333,0,0,-1.3333333,0,79.8984)"
     id="g10"><g
       id="g12"><g
         clip-path="url(#clipPath18)"
         id="g14"><g
           transform="translate(75.0732,59.9238)"
           id="g20"><path
             id="path22"
             style="fill:#92C948;fill-opacity:1;fill-rule:nonzero;stroke:none"
             d="m 0,0 c -0.788,0 -1.569,-0.31 -2.152,-0.909 -16.475,-16.945 -25.658,-25.14 -40.348,-37.275 -19.643,8.454 -28.173,11.61 -28.537,11.743 -0.339,0.126 -0.69,0.186 -1.035,0.186 -1.009,0 -1.979,-0.511 -2.541,-1.404 -0.755,-1.2 -0.566,-2.765 0.452,-3.751 0.733,-0.711 18.127,-17.519 33.144,-27.976 0.52,-0.362 1.119,-0.538 1.713,-0.538 0.836,0 1.663,0.348 2.252,1.016 30.656,34.77 39.428,53.88 39.787,54.677 0.598,1.328 0.155,2.893 -1.049,3.712 C 1.173,-0.17 0.584,0 0,0 m -0.001,-3 c 0,0 -8.592,-19.094 -39.301,-53.924 -14.991,10.439 -32.771,27.668 -32.771,27.668 0,0 9.065,-3.338 30.068,-12.408 16.228,13.365 25.297,21.48 42.004,38.664" /></g></g></g></g></svg>