<?xml version="1.0" encoding="UTF-8" standalone="no"?>
<svg
   xmlns:dc="http://purl.org/dc/elements/1.1/"
   xmlns:cc="http://creativecommons.org/ns#"
   xmlns:rdf="http://www.w3.org/1999/02/22-rdf-syntax-ns#"
   xmlns:svg="http://www.w3.org/2000/svg"
   xmlns="http://www.w3.org/2000/svg"
   viewBox="0 0 99.177071 80.094398"
   height="80.094398"
   width="99.177071"
   xml:space="preserve"
   id="svg2"
   version="1.1"><metadata
     id="metadata8"><rdf:RDF><cc:Work
         rdf:about=""><dc:format>image/svg+xml</dc:format><dc:type
           rdf:resource="http://purl.org/dc/dcmitype/StillImage" /></cc:Work></rdf:RDF></metadata><defs
     id="defs6"><clipPath
       id="clipPath18"
       clipPathUnits="userSpaceOnUse"><path
         id="path16"
         d="M 0,60.071 H 74.383 V 0 H 0 Z" /></clipPath></defs><g
     transform="matrix(1.3333333,0,0,-1.3333333,0,80.0944)"
     id="g10"><g
       id="g12"><g
         clip-path="url(#clipPath18)"
         id="g14"><g
           transform="translate(50.6592,54.3955)"
           id="g20"><path
             id="path22"
             style="fill:none;stroke:#fff;stroke-width:3;stroke-linecap:round;stroke-linejoin:round;stroke-miterlimit:10;stroke-dasharray:none;stroke-opacity:1"
             d="m 0,0 c -3.728,2.578 -8.269,4.003 -13.247,4.165 -15.143,0.493 -26.951,-17.274 -20.161,-30.99 4.702,-9.501 15.638,-14.351 25.858,-12.235 11.28,2.335 20.068,17.697 15.661,28.717 C 6.347,-5.924 3.534,-2.441 0,0 Z" /></g><g
           transform="translate(46.4404,48.7153)"
           id="g24"><path
             id="path26"
             style="fill:none;stroke:#fff;stroke-width:3;stroke-linecap:round;stroke-linejoin:round;stroke-miterlimit:10;stroke-dasharray:none;stroke-opacity:1"
             d="M 0,0 C -2.527,1.748 -5.606,2.714 -8.982,2.824 -19.251,3.159 -27.259,-8.89 -22.654,-18.19 c 3.188,-6.443 10.604,-9.732 17.535,-8.297 7.649,1.584 13.607,12 10.62,19.473 C 4.304,-4.017 2.396,-1.656 0,0 Z" /></g><g
           transform="translate(16.791,27.4673)"
           id="g28"><path
             id="path30"
             style="fill:none;stroke:#fff;stroke-width:3;stroke-linecap:round;stroke-linejoin:round;stroke-miterlimit:10;stroke-dasharray:none;stroke-opacity:1"
             d="M 0,0 C 0,0 2.813,-4.375 4.25,-5.687 5.687,-7 10.548,-10.735 10.548,-10.735 L -4.684,-25.967 v 10.783 h -10.607 z" /></g><g
           transform="translate(57.791,27.4048)"
           id="g32"><path
             id="path34"
             style="fill:none;stroke:#fff;stroke-width:3;stroke-linecap:round;stroke-linejoin:round;stroke-miterlimit:10;stroke-dasharray:none;stroke-opacity:1"
             d="m 0,0 c 0,0 -3.125,-4.812 -5.25,-6.812 -2.125,-2.001 -5.291,-4.067 -5.291,-4.067 L 4.484,-25.905 v 10.784 h 10.608 z" /></g><g
           transform="translate(38.0762,29.6138)"
           id="g36"><path
             id="path38"
             style="fill:none;stroke:#fff;stroke-width:3;stroke-linecap:round;stroke-linejoin:round;stroke-miterlimit:10;stroke-dasharray:none;stroke-opacity:1"
             d="M 0,0 V 14.583 L -5.232,9.35" /></g></g></g></g></svg>
