<svg xmlns:dc="http://purl.org/dc/elements/1.1/" xmlns:cc="http://creativecommons.org/ns#" xmlns:rdf="http://www.w3.org/1999/02/22-rdf-syntax-ns#" xmlns:svg="http://www.w3.org/2000/svg" xmlns="http://www.w3.org/2000/svg" viewBox="0 0 78.42 91.43" height="91.43" width="78.42" xml:space="preserve" version="1.1" id="svg2">
  <metadata id="metadata8">
    <rdf:RDF>
      <cc:Work rdf:about="">
        <dc:format>
          image/svg+xml
        </dc:format>
        <dc:type rdf:resource="http://purl.org/dc/dcmitype/StillImage"/>
      </cc:Work>
    </rdf:RDF>
  </metadata>
  <defs id="defs6">
    <clipPath id="clipPath16" clipPathUnits="userSpaceOnUse">
      <path id="path18" d="m0 73.15 62.73 0L62.73 0 0 0 0 73.15Z"/>
    </clipPath>
  </defs>
  <g transform="matrix(1.25,0,0,-1.25,0,91.433125)" id="g10">
    <g id="g12">
      <g clip-path="url(#clipPath16)" id="g14">
        <g transform="translate(31.3281,62.5381)" id="g20">
          <path id="path22" d="m0 0c-0.87-0.4-1.2-1.5-0.76-2.33 0.51-0.97 1.74-1.27 2.66-0.61 0.74 0.53 0.9 1.79 0.3 2.5C1.6 0.28 0.69 0.31 0 0Z" style="fill:none;stroke-linecap:round;stroke-linejoin:round;stroke-miterlimit:10;stroke-width:3;stroke:#fff"/>
        </g>
        <g transform="translate(16.6689,58.9512)" id="g24">
          <path id="path26" d="m0 0c-1.7-0.98 0.64-13.39 1.66-14.16 1.02-0.77 26.53-0.41 27.78 0.53 1.24 0.95 2.93 12.53 1.96 13.63C30.43 1.11 28.66-0.37 26.16 0 25.21 3.22 23.54 12.81 15.93 12.69 8.31 12.57 5.69 4.73 5.44 0 3.05-0.12 1.7 0.98 0 0Z" style="fill:none;stroke-linecap:round;stroke-linejoin:round;stroke-miterlimit:10;stroke-width:3;stroke:#fff"/>
        </g>
        <g transform="translate(14.9727,56.7637)" id="g28">
          <path id="path30" d="m0 0c-4.87-0.62-12.01-0.86-13.07-1.99-1.06-1.13 0.15-50.46 1.69-52.13 1.54-1.67 54.25-1.51 56.13 0.5 1.87 2 2.08 50.95 0.25 52.25-1.78 1.27-9.07 1.15-11.49 1.13" style="fill:none;stroke-linecap:round;stroke-linejoin:round;stroke-miterlimit:10;stroke-width:3;stroke:#fff"/>
        </g>
        <g transform="translate(15.9727,48.7168)" id="g32">
          <path id="path34" d="m0 0c-2.6 0-2.53 0.13-5.11 0-0.33-6.56 0.53-30.58 0.85-37.08 12.01-0.62 26.76-0.33 38.75 0.38C36.12-26.58 35.44-11.21 34.87 0 34.02-0.12 32.24 0 32 0" style="fill:none;stroke-linecap:round;stroke-linejoin:round;stroke-miterlimit:10;stroke-width:3;stroke:#fff"/>
        </g>
        <g transform="translate(19.3613,35.9863)" id="g36">
          <path id="path38" d="M0 0C3.02-0.36 6.46-0.87 9.54-0.22" style="fill:none;stroke-linecap:round;stroke-linejoin:round;stroke-miterlimit:10;stroke-width:3;stroke:#fff"/>
        </g>
        <g transform="translate(19.9639,28.3887)" id="g40">
          <path id="path42" d="M0 0C5 0.13 13.63-0.37 20-0.25" style="fill:none;stroke-linecap:round;stroke-linejoin:round;stroke-miterlimit:10;stroke-width:3;stroke:#fff"/>
        </g>
        <g transform="translate(19.9639,20.8887)" id="g44">
          <path id="path46" d="M0 0C1.67-0.57 3.7-0.34 5.5-0.12" style="fill:none;stroke-linecap:round;stroke-linejoin:round;stroke-miterlimit:10;stroke-width:3;stroke:#fff"/>
        </g>
      </g>
    </g>
  </g>
</svg>
