<?xml version="1.0" encoding="iso-8859-1"?>
<!-- Generator: Adobe Illustrator 18.0.0, SVG Export Plug-In . SVG Version: 6.00 Build 0)  -->
<!DOCTYPE svg PUBLIC "-//W3C//DTD SVG 1.1//EN" "http://www.w3.org/Graphics/SVG/1.1/DTD/svg11.dtd">
<svg version="1.1" id="Capa_1" xmlns="http://www.w3.org/2000/svg" xmlns:xlink="http://www.w3.org/1999/xlink" x="0px" y="0px"
	 viewBox="0 0 297 297" style="enable-background:new 0 0 297 297;" xml:space="preserve">
<g>
	<g>
		<g>
			<path style="fill:#5B5869;" d="M118.661,293.081H72.505c-32.217,0-58.333-26.117-58.333-58.334V107.18
				c0-32.217,26.117-58.334,58.333-58.334h46.156c32.217,0,58.333,26.117,58.333,58.334v127.568
				C176.994,266.965,150.877,293.081,118.661,293.081z"/>
		</g>
	</g>
	<g>
		<rect x="14.171" y="113.976" style="fill:#E3E5E4;" width="162.823" height="113.976"/>
	</g>
	<g>
		<g>
			<polygon style="fill:#F36E81;" points="136.288,154.682 111.865,154.682 111.865,130.258 79.3,130.258 79.3,154.682 
				54.877,154.682 54.877,187.246 79.3,187.246 79.3,211.67 111.865,211.67 111.865,187.246 136.288,187.246 			"/>
		</g>
	</g>
	<g>
		<g>
			<path style="fill:#DA768E;" d="M56.069,48.847h79.027c5.155,0,9.333-4.179,9.333-9.333V9.333c0-5.155-4.179-9.333-9.333-9.333
				H56.069c-5.155,0-9.333,4.179-9.333,9.333v30.18C46.736,44.668,50.914,48.847,56.069,48.847z"/>
		</g>
	</g>
	<g style="opacity:0.6;">
		<path style="fill:#BDC3C7;" d="M63.018,39.637V9.21c0-5.087,4.124-9.21,9.21-9.21H55.946c-5.087,0-9.21,4.124-9.21,9.21v30.426
			c0,5.087,4.124,9.21,9.21,9.21h16.282C67.141,48.847,63.018,44.723,63.018,39.637z"/>
	</g>
	<g>
		<g>
			<path style="fill:#DA768E;" d="M282.829,72.426c0-25.839-16.758-56.144-37.429-56.144c-20.671,0-37.429,30.304-37.429,56.144
				c0,21.046,11.118,32.637,26.413,36.214l-14.262,160.428C218.626,284.023,230.37,297,245.4,297s26.774-12.977,25.279-27.932
				L256.416,108.64C271.711,105.063,282.829,93.472,282.829,72.426z"/>
		</g>
	</g>
	<g style="opacity:0.6;">
		<path style="fill:#BDC3C7;" d="M229.479,269.068l14.262-160.428c-15.294-3.577-26.413-15.167-26.413-36.214
			c0-23.857,14.289-51.501,32.75-55.604c-1.534-0.341-3.093-0.539-4.679-0.539c-20.671,0-37.429,30.304-37.429,56.144
			c0,21.046,11.118,32.637,26.413,36.214l-14.262,160.428C218.626,284.023,230.37,297,245.4,297c1.602,0,3.163-0.156,4.679-0.437
			C237.377,294.203,228.143,282.429,229.479,269.068z"/>
	</g>
	<g style="opacity:0.6;">
		<path style="fill:#BDC3C7;" d="M135.712,276.799H88.017c-31.792,0-57.564-25.772-57.564-57.564V90.128
			c0-11.732,3.518-22.638,9.544-31.737c-15.56,10.305-25.827,27.96-25.827,48.02v129.107c0,31.792,25.772,57.564,57.564,57.564
			h47.695c20.06,0,37.715-10.267,48.02-25.827C158.35,273.281,147.444,276.799,135.712,276.799z"/>
	</g>
</g>
<g>
</g>
<g>
</g>
<g>
</g>
<g>
</g>
<g>
</g>
<g>
</g>
<g>
</g>
<g>
</g>
<g>
</g>
<g>
</g>
<g>
</g>
<g>
</g>
<g>
</g>
<g>
</g>
<g>
</g>
</svg>
