<?xml version="1.0" encoding="iso-8859-1"?>
<!-- Generator: Adobe Illustrator 19.0.0, SVG Export Plug-In . SVG Version: 6.00 Build 0)  -->
<svg version="1.1" id="Layer_1" xmlns="http://www.w3.org/2000/svg" xmlns:xlink="http://www.w3.org/1999/xlink" x="0px" y="0px"
	 viewBox="0 0 512 512" style="enable-background:new 0 0 512 512;" xml:space="preserve">
<path style="fill:#8CD2FF;" d="M493.714,512H274.286C264.186,512,256,503.814,256,493.714V274.286
	c0-10.099,8.186-18.286,18.286-18.286h219.429c10.099,0,18.286,8.186,18.286,18.286v219.429C512,503.814,503.814,512,493.714,512z"
	/>
<path style="fill:#69BEFF;" d="M393.138,283.429c-30.158,0-58.458,13.357-77.645,36.646c-19.186,23.283-26.839,53.829-20.995,83.8
	c7.665,39.328,39.216,70.96,78.511,78.713c6.683,1.32,13.473,1.989,20.178,1.989c20.654,0,40.521-6.243,57.454-18.057
	c8.011-5.589,13.367-13.963,15.079-23.581s-0.424-19.327-6.014-27.339c-6.827-9.795-18.046-15.648-30.003-15.648
	c-7.512,0-14.745,2.277-20.918,6.585c-4.575,3.19-10.011,4.878-15.711,4.878c-1.951,0-3.943-0.197-5.922-0.585
	c-10.429-2.059-18.822-10.48-20.865-20.952c-1.693-8.69,0.263-16.747,5.657-23.295c5.243-6.361,12.969-10.011,21.195-10.011
	c0.391,0,0.779,0.008,1.168,0.024C398.384,372.339,412.713,384,429.714,384c20.166,0,36.571-16.406,36.571-36.571v-10.933
	c0-16.167-8.543-31.217-22.295-39.277C428.613,288.199,411.026,283.429,393.138,283.429L393.138,283.429z"/>
<path style="fill:#E15050;" d="M365.714,256H146.286C136.186,256,128,247.814,128,237.714V18.286C128,8.186,136.186,0,146.286,0
	h219.429C375.814,0,384,8.186,384,18.286v219.429C384,247.814,375.814,256,365.714,256z"/>
<path style="fill:#FFC855;" d="M237.714,512H18.286C8.186,512,0,503.814,0,493.714V274.286C0,264.186,8.186,256,18.286,256h219.429
	c10.099,0,18.286,8.186,18.286,18.286v219.429C256,503.814,247.814,512,237.714,512z"/>
<path style="fill:#D24146;" d="M256,36.567c-19.481,0-36.747,11.689-43.986,29.778l-44.827,112.074
	c-3.627,9.069-3.506,19.008,0.341,27.986c3.848,8.981,10.965,15.925,20.037,19.551c4.33,1.738,8.905,2.624,13.576,2.624
	c15.039,0,28.368-9.027,33.958-22.998l1.776-4.44h38.253l1.776,4.439c5.59,13.969,18.919,22.994,33.96,22.994
	c4.671,0,9.242-0.883,13.589-2.625c9.058-3.622,16.174-10.565,20.022-19.545c3.847-8.978,3.968-18.918,0.341-27.987L299.987,66.339
	C292.743,48.25,275.478,36.567,256,36.567L256,36.567z"/>
<path style="fill:#FFAF4B;" d="M137.143,283.429h-27.429c-30.248,0-54.857,24.609-54.857,54.857v36.571V448
	c0,20.166,16.406,36.571,36.571,36.571h54.857c40.331,0,73.143-32.811,73.143-73.143c0-18.664-7.259-36.562-19.893-50.021
	c1.069-4.6,1.607-9.271,1.607-13.979C201.143,312.139,172.432,283.429,137.143,283.429L137.143,283.429z"/>
<path style="fill:#FFC855;" d="M327.834,185.21L283.008,73.13c-4.447-11.103-15.049-18.277-27.009-18.277
	c-11.96,0-22.562,7.174-27.009,18.286l-44.826,112.072c-3.75,9.375,0.808,20.018,10.187,23.768
	c9.366,3.759,20.014-0.803,23.768-10.187l6.375-15.935h63.013l6.374,15.933c2.862,7.152,9.728,11.501,16.982,11.501
	c2.259,0,4.558-0.419,6.786-1.312C327.026,205.227,331.585,194.585,327.834,185.21z M239.121,146.286L256,104.089l16.879,42.197
	H239.121z"/>
<path style="fill:#E15050;" d="M178.298,366.971c2.839-5.949,4.559-12.525,4.559-19.543c0-25.206-20.509-45.714-45.714-45.714
	h-27.429c-20.166,0-36.571,16.406-36.571,36.571v36.571V448c0,10.098,8.187,18.286,18.286,18.286h54.857
	c30.25,0,54.857-24.607,54.857-54.857C201.143,393.133,192.106,376.943,178.298,366.971z M109.714,338.286h27.429
	c5.04,0,9.143,4.103,9.143,9.143s-4.103,9.143-9.143,9.143h-27.429V338.286z M146.286,429.714h-36.571v-36.571h27.429h9.143
	c10.085,0,18.286,8.201,18.286,18.286S156.37,429.714,146.286,429.714z"/>
<path id="SVGCleanerId_0" style="fill:#FFC855;" d="M393.187,466.29c-5.509,0-11.075-0.545-16.639-1.643
	c-32.085-6.33-57.843-32.161-64.103-64.272c-4.794-24.594,1.464-49.625,17.161-68.674c15.701-19.058,38.857-29.986,63.531-29.986
	c14.639,0,29.026,3.902,41.607,11.281c8.174,4.79,13.255,13.799,13.255,23.501v10.933c0,10.098-8.187,18.286-18.286,18.286
	c-10.098,0-18.286-8.187-18.286-18.286v-5.335c-5.737-2.504-11.969-3.808-18.29-3.808c-13.71,0-26.576,6.075-35.309,16.67
	c-8.853,10.745-12.223,24.393-9.491,38.424c3.451,17.683,17.63,31.906,35.29,35.393c12.691,2.491,25.335-0.072,35.621-7.241
	c8.29-5.786,19.688-3.75,25.459,4.531c5.782,8.286,3.75,19.683-4.531,25.459C426.241,461.246,409.986,466.29,393.187,466.29z"/>
<g>
	<path style="fill:#FFAF4B;" d="M312.161,198.79l-4.074-10.186c-1.389-3.471-4.751-5.747-8.489-5.747h-12.091l6.374,15.933
		c2.862,7.152,9.728,11.501,16.982,11.501c2.259,0,4.558-0.419,6.786-1.312c0.861-0.344,1.635-0.803,2.411-1.258
		C316.625,205.742,313.747,202.757,312.161,198.79z"/>
	<path style="fill:#FFAF4B;" d="M268.091,104.089H256l16.879,42.197h9.203c4.347,0,7.321-4.391,5.706-8.429l-11.208-28.021
		C275.192,106.366,271.83,104.089,268.091,104.089z"/>
	<path style="fill:#FFAF4B;" d="M202.447,185.21l44.826-112.072c3.265-8.16,9.864-14.163,17.869-16.795
		c-2.896-0.952-5.963-1.49-9.141-1.49c-11.96,0-22.562,7.174-27.009,18.286L184.166,185.21c-3.75,9.375,0.808,20.018,10.187,23.768
		c5.422,2.176,11.234,1.494,15.929-1.227C202.553,203.272,199.032,193.745,202.447,185.21z"/>
</g>
<g>
	<path style="fill:#D24146;" d="M146.286,347.429c0,5.04-4.103,9.143-9.143,9.143h18.286c5.04,0,9.143-4.103,9.143-9.143
		s-4.103-9.143-9.143-9.143h-18.286C142.183,338.286,146.286,342.389,146.286,347.429z"/>
	<path style="fill:#D24146;" d="M91.429,448v-73.143v-36.571c0-20.166,16.406-36.571,36.571-36.571h-18.286
		c-20.166,0-36.571,16.406-36.571,36.571v36.571V448c0,10.098,8.187,18.286,18.286,18.286h18.286
		C99.616,466.286,91.429,458.098,91.429,448z"/>
	<path style="fill:#D24146;" d="M146.286,429.714h18.286c10.085,0,18.286-8.201,18.286-18.286s-8.201-18.286-18.286-18.286h-9.143
		h-9.143c10.085,0,18.286,8.201,18.286,18.286S156.37,429.714,146.286,429.714z"/>
</g>
<g>
	<path id="SVGCleanerId_0_1_" style="fill:#FFC855;" d="M393.187,466.29c-5.509,0-11.075-0.545-16.639-1.643
		c-32.085-6.33-57.843-32.161-64.103-64.272c-4.794-24.594,1.464-49.625,17.161-68.674c15.701-19.058,38.857-29.986,63.531-29.986
		c14.639,0,29.026,3.902,41.607,11.281c8.174,4.79,13.255,13.799,13.255,23.501v10.933c0,10.098-8.187,18.286-18.286,18.286
		c-10.098,0-18.286-8.187-18.286-18.286v-5.335c-5.737-2.504-11.969-3.808-18.29-3.808c-13.71,0-26.576,6.075-35.309,16.67
		c-8.853,10.745-12.223,24.393-9.491,38.424c3.451,17.683,17.63,31.906,35.29,35.393c12.691,2.491,25.335-0.072,35.621-7.241
		c8.29-5.786,19.688-3.75,25.459,4.531c5.782,8.286,3.75,19.683-4.531,25.459C426.241,461.246,409.986,466.29,393.187,466.29z"/>
</g>
<g>
	<path style="fill:#FFAF4B;" d="M393.138,338.286c9.147,0,15.374,2.535,18.29,3.808v4.03c0,8.925,5.808,17.321,14.534,19.19
		c4.79,1.025,9.211,0.009,12.894-2.134c-5.443-3.167-9.144-8.999-9.144-15.75l0,0c0-5.049-4.094-9.143-9.143-9.143h-27.431V338.286z
		"/>
	<path style="fill:#FFAF4B;" d="M394.833,464.647c-32.085-6.33-57.843-32.161-64.103-64.272
		c-4.794-24.594,1.464-49.625,17.161-68.674c13.646-16.563,32.928-26.965,53.937-29.409c-2.883-0.306-5.774-0.577-8.69-0.577
		c-24.674,0-47.831,10.929-63.531,29.986c-15.696,19.049-21.955,44.08-17.161,68.674c6.259,32.112,32.018,57.942,64.103,64.272
		c5.562,1.098,11.129,1.643,16.639,1.643c2.845,0,5.642-0.35,8.447-0.637C399.369,465.389,397.101,465.095,394.833,464.647z"/>
</g>
<g>
</g>
<g>
</g>
<g>
</g>
<g>
</g>
<g>
</g>
<g>
</g>
<g>
</g>
<g>
</g>
<g>
</g>
<g>
</g>
<g>
</g>
<g>
</g>
<g>
</g>
<g>
</g>
<g>
</g>
</svg>
